<svg width="12" height="15" viewBox="0 0 12 15" fill="none" xmlns="http://www.w3.org/2000/svg">
<path d="M3.10903 1.44763C4.92975 0.389721 7.16771 0.408211 8.97133 1.49607C10.7572 2.60609 11.8427 4.58714 11.8326 6.7182C11.791 8.83527 10.6271 10.8253 9.17224 12.3637C8.33254 13.2557 7.39319 14.0444 6.37338 14.7137C6.26835 14.7744 6.15331 14.8151 6.03392 14.8337C5.91901 14.8288 5.80711 14.7948 5.70831 14.7349C4.15137 13.7291 2.78546 12.4454 1.67629 10.9453C0.748172 9.69313 0.220878 8.18033 0.166016 6.61234L0.170171 6.38424C0.245951 4.33753 1.35335 2.46777 3.10903 1.44763ZM6.7554 4.86264C6.01524 4.54802 5.16188 4.71895 4.59378 5.29562C4.02567 5.87228 3.85488 6.74093 4.16115 7.49598C4.46742 8.25102 5.19033 8.74353 5.99235 8.74353C6.51777 8.74731 7.02284 8.53685 7.39502 8.15906C7.76721 7.78126 7.97558 7.26752 7.97373 6.73231C7.97653 5.91536 7.49556 5.17725 6.7554 4.86264Z" fill="#092F44"/>
</svg>
